<svg xmlns="http://www.w3.org/2000/svg" viewBox="0 0 512 512">
<defs>
 <linearGradient id="bg" x1="0" y1="0" x2="1" y2="1"><stop stop-color="#07131a"/><stop offset=".5" stop-color="#001f27"/><stop offset="1" stop-color="#00140f"/></linearGradient>
 <linearGradient id="edge" x1="0" y1="0" x2="1" y2="1"><stop stop-color="#00ff9d"/><stop offset=".48" stop-color="#12e8d0"/><stop offset="1" stop-color="#00ff66"/></linearGradient>
 <linearGradient id="green" x1="0" y1="0" x2="1" y2="1"><stop stop-color="#d8ff8a"/><stop offset=".38" stop-color="#4cff72"/><stop offset="1" stop-color="#00dca8"/></linearGradient>
 <linearGradient id="white" x1="0" y1="0" x2="0" y2="1"><stop stop-color="#fff"/><stop offset="1" stop-color="#d9e8ff"/></linearGradient>
 <filter id="glow"><feGaussianBlur stdDeviation="9"/></filter>
 <filter id="soft"><feGaussianBlur stdDeviation="4"/></filter>
</defs>
<rect x="12" y="12" width="488" height="488" rx="112" fill="#02080d"/>
<rect x="25" y="25" width="462" height="462" rx="101" fill="url(#bg)" stroke="url(#edge)" stroke-width="10"/>
<rect x="32" y="32" width="448" height="448" rx="94" fill="none" stroke="#00ff9d" stroke-width="3" opacity=".45" filter="url(#soft)"/>
<path d="M105 273c-28-94 39-184 143-184 83 0 150 54 150 132 0 79-69 133-157 133h-58l-60 45 14-65c-16-17-27-38-32-61z" fill="none" stroke="#00ff9d" stroke-width="32" opacity=".24" filter="url(#glow)"/>
<path d="M105 273c-28-94 39-184 143-184 83 0 150 54 150 132 0 79-69 133-157 133h-58l-60 45 14-65c-16-17-27-38-32-61z" fill="none" stroke="url(#edge)" stroke-width="18" stroke-linecap="round" stroke-linejoin="round"/>
<path d="M118 170c45-65 112-81 174-69" fill="none" stroke="url(#edge)" stroke-width="9" stroke-linecap="round" opacity=".85"/>
<path d="M142 414c70 50 162 58 244 13" fill="none" stroke="url(#edge)" stroke-width="11" stroke-linecap="round" opacity=".9"/>
<text x="255" y="316" font-family="Arial,sans-serif" font-size="156" font-weight="900" letter-spacing="-20" text-anchor="middle" fill="url(#white)">G</text>
<text x="326" y="316" font-family="Arial,sans-serif" font-size="156" font-weight="900" letter-spacing="-20" text-anchor="middle" fill="url(#green)">G</text>
<g fill="#f4ffff"><circle cx="324" cy="239" r="10"/><circle cx="357" cy="239" r="10"/><circle cx="390" cy="239" r="10"/></g>
<path d="M341 125l13 27 29 4-21 20 5 29-26-14-26 14 5-29-21-20 29-4z" fill="url(#green)" stroke="#dfffba" stroke-width="2"/>
</svg>